<svg xmlns="http://www.w3.org/2000/svg" fill="#000000" height="24" viewBox="0 0 24 24" width="24"  xmlns:xlink="http://www.w3.org/1999/xlink"><rect id="svgEditorBackground" x="0" y="0" width="24" height="24" style="fill:none;stroke:none;"/>
    <path d="M0 0h24v24H0z" fill="none"/>
    <path d="M3,2l2.01,18.23c0.1200000000000001,1,0.96,1.7699999999999996,1.9900000000000002,1.7699999999999996h10c1.0300000000000011,0,1.870000000000001,-0.7699999999999996,1.9899999999999984,-1.7699999999999996l2.0100000000000016,-18.23h-18ZM12,19c-1.6600000000000001,0,-3,-1.3399999999999999,-3,-3c0,-2,3,-5.4,3,-5.4s3,3.4000000000000004,3,5.4c0,1.6600000000000001,-1.3399999999999999,3,-3,3ZM18.33,8h-12.659999999999998l-0.4400000000000004,-4h13.529999999999998l-0.4299999999999997,4Z" style="fill:#FFB81C;"/>
</svg>